<svg xmlns="http://www.w3.org/2000/svg" viewBox="0 0 64 64" role="img" aria-labelledby="title">
  <title id="title">Pigeon Packet favicon</title>
  <rect width="64" height="64" rx="16" fill="#ffffff" />
  <g fill="none" stroke="#22308A" stroke-linecap="round" stroke-linejoin="round" stroke-width="3.2">
    <path d="M16 36c-5.5 0-10-4.2-10-9.4 0-4.1 2.7-7.5 6.5-8.8.2-4.8 4.3-8.7 9.4-8.7 1 0 1.9.1 2.7.4 2-4.8 6.9-8 12.5-8 7.5 0 13.8 5.8 14.1 13.2 1-.2 2-.3 2.9-.3 5.7 0 10.4 4.3 10.4 9.8 0 2.6-1 4.8-2.7 6.7"/>
    <path d="M22.5 18.7c3.4 1.7 7.4 2.9 12.5 4 4 .9 7.3 3.1 9.8 6.5 2.1-1.3 4-3.2 5.5-5.5 1.8-2.4 4.2-3.6 7-3.6"/>
    <path d="M23 18.8c-.7 4.1 1.7 8.3 6 9.9M24 26.2c1 2.7 3.2 4.7 6 6M26.5 31.7c1.7 2.4 4.4 4.1 8 4.9"/>
    <path d="M43 42.8c5.4-1.7 9.7-5.7 12-11l3.8-8.5"/>
    <path d="M49.2 26.4 54 37l-4.8-2.2-4.8 2.2 4.8-10.6Z" fill="#22308A" />
    <path d="M43.1 28.8 49.2 26l6.1 2.8"/>
    <path d="M43.1 29.6v11.2l6.1 3.5 6.1-3.5V29.6" fill="#22308A" />
  </g>
  <circle cx="44.2" cy="19.7" r="2.4" fill="#22308A" />
  <path d="M49.7 33.4v5.6l3.7-2v-5.8l-3.7 2.2Z" fill="#ffffff" />
</svg>
