<svg xmlns="http://www.w3.org/2000/svg" viewBox="0 0 720 180" role="img" aria-labelledby="title desc">
  <title id="title">Pigeon Packet logo</title>
  <desc id="desc">A technology-style pigeon carrying a package with the Chinese wordmark for Pigeon Packet.</desc>
  <g fill="none" fill-rule="evenodd">
    <g transform="translate(24 18)">
      <path
        d="M88 98c-23 0-42-17-42-39 0-17 11-31 27-37 1-20 18-36 40-36 4 0 8 1 11 2 8-20 28-34 51-34 31 0 57 24 58 54 4-1 9-1 13-1 24 0 44 18 44 41 0 11-4 20-11 28"
        stroke="#F8FBFF"
        stroke-linecap="round"
        stroke-linejoin="round"
        stroke-width="8"
      />
      <path
        d="M109 49c14 7 31 12 52 17 17 4 31 13 42 27 9-5 17-13 24-23 8-11 19-16 31-16 16 0 29 13 29 29 0 3 0 6-1 8"
        stroke="#F8FBFF"
        stroke-linecap="round"
        stroke-linejoin="round"
        stroke-width="8"
      />
      <path
        d="M110 49c-3 17 7 35 25 42M114 80c4 11 13 20 25 25M123 102c7 10 18 18 33 21"
        stroke="#F8FBFF"
        stroke-linecap="round"
        stroke-linejoin="round"
        stroke-width="8"
      />
      <path
        d="M193 149c26-8 47-27 58-53l18-39"
        stroke="#F8FBFF"
        stroke-linecap="round"
        stroke-linejoin="round"
        stroke-width="8"
      />
      <circle cx="257" cy="71" r="6" fill="#F8FBFF" />
      <path d="M283 81l22 50-22-10-22 10 22-50z" fill="#F8FBFF" />
      <path d="M255 92l28-11 28 11" stroke="#F8FBFF" stroke-linecap="round" stroke-linejoin="round" stroke-width="8" />
      <path d="M255 95v53l28 16 28-16V95" fill="#F8FBFF" />
      <path d="M286 113v28l17-9v-29l-17 10z" fill="#ffffff" />
      <path d="M281 78v12" stroke="#59B6FF" stroke-linecap="round" stroke-width="8" />
      <path d="M335 120h28" stroke="#59B6FF" stroke-linecap="round" stroke-width="8" />
      <path d="M351 104v32" stroke="#59B6FF" stroke-linecap="round" stroke-width="8" />
      <circle cx="351" cy="120" r="9" fill="#59B6FF" />
    </g>

    <g transform="translate(402 54)">
      <text
        x="0"
        y="40"
        fill="#F8FBFF"
        font-family="'Segoe UI', 'Microsoft JhengHei', 'Noto Sans TC', sans-serif"
        font-size="46"
        font-weight="700"
        letter-spacing="3"
      >
        &#x9D3F;&#x5B50;&#x5C01;&#x5305;
      </text>
      <text
        x="2"
        y="84"
        fill="#B8C7E6"
        font-family="'Bahnschrift', 'Segoe UI', sans-serif"
        font-size="18"
        font-weight="600"
        letter-spacing="4"
      >
        PIGEON PACKET
      </text>
    </g>
  </g>
</svg>
